<?xml version="1.0" encoding="UTF-8"?>
<svg version="1.1" viewBox="0 0 1600 320" width="500" height="101" xmlns="http://www.w3.org/2000/svg">
<path transform="translate(1236,89)" d="m0 0c2.49-0.33 2.49-0.33 5.67-0.26 1.78 0.02 1.78 0.02 3.6 0.05 1.29 0.03 2.59 0.07 3.92 0.1 1.34 0.03 2.68 0.05 4.02 0.07 2.82 0.06 5.64 0.12 8.45 0.19 3.59 0.08 7.18 0.16 10.8 0.22 3.44 0.06 6.89 0.14 10.3 0.21 1.28 0.02 2.55 0.05 3.87 0.08 16.2 0.39 30.7 2.01 43.4 13.3v2h2c5.77 7.13 9.63 14.7 10 24 0.05 1.05 0.1 2.11 0.16 3.19 0.39 14.9-3.19 26.9-13.3 38-3.52 3.43-7.13 6.22-11.8 7.79 0.57 3.69 1.53 6.26 3.55 9.4 0.51 0.81 1.03 1.62 1.56 2.45 0.54 0.83 1.08 1.67 1.64 2.53 0.79 1.23 0.79 1.23 1.59 2.5 1.54 2.38 3.09 4.76 4.66 7.12 0.47 0.71 0.95 1.43 1.44 2.16 1.13 1.65 2.34 3.25 3.56 4.84h2c0.1 0.62 0.21 1.24 0.31 1.88 0.57 2.49 0.57 2.49 3.69 4.12 0.69 3.62 0.69 3.62 1 7-3.58 0.15-7.17 0.23-10.8 0.31-1.52 0.07-1.52 0.07-3.08 0.13-7.53 0.12-7.53 0.12-10.9-2.83-1.3-2.61-1.3-2.61-1.3-4.61l-2-1c-1.62-1.38-1.62-1.38-3-3v-3l-2-2c-0.33-1.01-0.66-2.02-1-3.06-0.66-3.06-0.66-3.06-3-3.94l-3-6c-0.98-1.02-1.98-2.02-3-3-0.58-1.03-1.15-2.06-1.75-3.12-1.99-3.18-1.99-3.18-5.44-3.55-3.71-0.32-7.33-0.44-11.1-0.43-0.65 0-1.31 0.01-1.98 0.01-2.07 0-4.14 0.01-6.21 0.03-1.41 0-2.82 0.01-4.24 0.01-3.44 0.01-6.88 0.03-10.3 0.05-0.03 1.08-0.05 2.16-0.08 3.27-0.09 4-0.19 8-0.29 12-0.05 1.73-0.09 3.47-0.13 5.2-0.05 2.49-0.12 4.97-0.18 7.46-0.03 1.17-0.03 1.17-0.05 2.35-0.16 5.49-0.16 5.49-1.27 7.72-3.69 1.23-7.15 1.26-11 1.31-0.72 0.03-1.45 0.06-2.2 0.09-2.11 0.03-2.11 0.03-5.8-0.4-2.12-2.11-2.92-3.48-3.37-6.45v-2.79c-0.01-1.07-0.02-2.13-0.03-3.22 0.01-1.16 0.02-2.32 0.03-3.51-0.01-1.23-0.01-2.45-0.01-3.71-0.01-3.36 0-6.71 0.01-10.1 0.01-3.51 0.01-7.02 0.01-10.5-0.01-5.9 0.01-11.8 0.02-17.7 0.02-6.82 0.03-13.6 0.02-20.4 0-6.56 0-13.1 0.01-19.7 0.01-2.79 0.01-5.58 0.01-8.37-0.01-3.9 0.01-7.79 0.03-11.7-0.01-1.16-0.01-2.32-0.01-3.52 0.01-1.58 0.01-1.58 0.02-3.2 0-0.92 0-1.85 0.01-2.79 0.25-2.33 0.25-2.33 2.25-5.33zm23 21c-2 5.81-2.27 11-2.2 17.1 0.01 0.94 0.01 1.89 0.01 2.86 0.01 3 0.04 5.99 0.07 8.99 0.01 2.04 0.01 4.08 0.02 6.12 0.02 4.98 0.06 9.96 0.1 14.9 4.08 1.26 7.72 2.25 12 2.23h2.73c1.4-0.02 1.4-0.02 2.83-0.04 0.98-0.01 1.95-0.02 2.95-0.03 2.83-0.04 5.66-0.09 8.49-0.16 0.73-0.01 1.47-0.03 2.22-0.04 10.7-0.26 20.1-2.09 27.8-9.96 3.43-5.31 3.42-9.9 3.31-16 0.01-0.88 0.01-1.75 0.01-2.66-0.04-5.51-0.13-10.7-3.8-15.1-8.28-6.76-16-8.37-26.5-8.31-0.86 0-1.72 0.01-2.6 0.01-2.73 0-5.46 0.01-8.19 0.03-1.86 0-3.71 0.01-5.57 0.01-4.54 0.01-9.08 0.03-13.6 0.05z" fill="#F8FAFA"/>
<path transform="translate(489,90)" d="m0 0c8.04-0.05 16.1-0.08 24.1-0.1 3.74-0.01 7.47-0.03 11.2-0.05 3.61-0.02 7.22-0.03 10.8-0.04 1.37 0 2.74-0.01 4.12-0.02 16.1-0.12 32.3 2.33 44.5 13.9 3.67 4.03 6.01 8.41 8.25 13.3 0.35 0.61 0.69 1.23 1.05 1.86 4.14 9.29 3.27 24.3 0.33 33.8-4.05 10.1-10.2 17.9-19.8 23.3-2.62 1.06-2.62 1.06-4.62 1.06 0.43 1.27 0.87 2.54 1.31 3.81 0.25 0.71 0.49 1.42 0.74 2.15 1.03 2.21 2.2 3.37 3.95 5.04 1.05 1.98 2.05 3.97 3 6h2c0.39 0.99 0.78 1.98 1.19 3 1.81 4.22 3.96 8.38 6.81 12h2l1 5c1.49 0.5 1.49 0.5 3 1-0.5 1.98-0.5 1.98-1 4 0.99 0.33 1.98 0.66 3 1v1c-3.71 0.26-7.41 0.42-11.1 0.56-1.05 0.08-2.1 0.15-3.18 0.23-3.13 0.09-5.67 0.05-8.7-0.79-2.76-2.66-4.32-5.59-6-9-0.77-1.16-1.56-2.31-2.38-3.44-1.62-2.56-1.62-2.56-1.62-4.56l-2-1c-1.07-1.56-1.07-1.56-2.12-3.44-0.36-0.61-0.71-1.23-1.08-1.87-0.8-1.69-0.8-1.69-0.8-3.69l-2-1c-2.65-3.65-4.31-6.77-6-11h-38v39h-22c-1-3.01-1.13-4.99-1.13-8.13 0-1.06 0-2.12-0.01-3.22 0.01-1.16 0.01-2.33 0.01-3.53v-3.71c-0.01-3.36-0.01-6.73 0-10.1 0-3.52 0-7.04-0.01-10.6 0-5.91 0-11.8 0.01-17.7 0.01-6.83 0-13.7 0-20.5-0.01-5.86-0.01-11.7 0-17.6 0-3.5 0-7-0.01-10.5 0-3.9 0.01-7.8 0.01-11.7 0-1.17 0-2.34-0.01-3.54 0.01-1.06 0.01-2.12 0.01-3.21v-2.79c0.13-2.21 0.13-2.21 1.13-4.21zm22 20c-0.03 7.24-0.04 14.5-0.05 21.7l-0.03 7.41c-0.01 3.53-0.01 7.07-0.02 10.6 0 1.11-0.01 2.22-0.01 3.36v3.09c-0.01 0.91-0.01 1.81-0.01 2.74-0.11 2.05-0.11 2.05 1.12 3.06 2.67 0.13 5.32 0.19 7.99 0.2 0.81 0.01 1.63 0.01 2.46 0.02 1.74 0.01 3.47 0.02 5.2 0.02 2.61 0.01 5.22 0.04 7.84 0.07 17 0.47 17 0.47 31.6-7.12 0.69-0.65 1.39-1.29 2.1-1.96 5.77-6.99 5.82-14.5 5.13-23.2-0.87-6.19-3.9-10.9-8.48-15-7.16-5.15-14-5.19-22.6-5.14-0.93 0-1.85 0.01-2.8 0.01-2.94 0-5.87 0.01-8.81 0.03-1.99 0-3.99 0.01-5.98 0.01-4.88 0.01-9.76 0.03-14.6 0.05z" fill="#3E3E3E"/>
<path transform="translate(1041 89.7)" d="m0 0c1.26 0.01 1.26 0.01 2.55 0.02 1.32-0.01 1.32-0.01 2.68-0.01 2.93 0 5.87 0.01 8.8 0.02h6.1c4.26 0 8.53 0.01 12.8 0.02 5.47 0.02 11 0.02 16.4 0.02 4.2 0 8.4 0.01 12.6 0.02h6.06c2.81 0.01 5.63 0.01 8.45 0.02h2.55c5.77 0.04 5.77 0.04 8 1.15v19c-35.2 0.49-35.2 0.49-71 1v33c32.2 0.49 32.2 0.49 65 1-1 19-1 19-2 20-1.93 0.15-3.87 0.24-5.81 0.3-1.24 0.04-2.48 0.08-3.76 0.12-1.36 0.04-2.73 0.08-4.09 0.12-1.39 0.04-2.78 0.08-4.17 0.13l-11 0.33c-3.73 0.11-7.47 0.22-11.2 0.34l-22 0.66c-1.24 2.48-1.13 4.17-1.13 6.95-0.01 0.99-0.01 1.99-0.01 3.01 0.01 1.57 0.01 1.57 0.01 3.16 0 1.03 0 2.05-0.01 3.1 0 1.5 0 1.5 0.01 3.04v2.75c0.16 3.71 0.63 7.31 1.13 11 0.72 0.01 1.44 0.02 2.19 0.03 6.87 0.1 13.7 0.2 20.6 0.31 3.53 0.05 7.06 0.11 10.6 0.16 4.08 0.05 8.15 0.12 12.2 0.18 1.25 0.02 2.49 0.04 3.78 0.05 7.9 0.14 15.7 0.57 23.6 1.27 0.79 3.76 1.19 7.27 1.25 11.1 0.02 1.04 0.05 2.07 0.08 3.14-0.33 2.74-0.33 2.74-1.61 4.39-3.05 2.39-6.97 1.74-10.7 1.69h-2.78c-3.04 0-6.07-0.02-9.11-0.05-2.1 0-4.2-0.01-6.31-0.01-5.54-0.01-11.1-0.04-16.6-0.07-5.65-0.03-11.3-0.05-17-0.06-11.1-0.04-22.2-0.09-33.3-0.15-1.89-3.2-2.25-5.56-2.26-9.25 0-1.06-0.01-2.13-0.01-3.22 0-1.16 0.01-2.32 0.01-3.52 0-1.23-0.01-2.45-0.01-3.71-0.01-3.36-0.01-6.72 0-10.1v-10.6c-0.01-5.9 0-11.8 0.01-17.7 0.01-6.83 0.01-13.7-0.01-20.5-0.01-5.86-0.01-11.7 0-17.6v-10.5c-0.01-3.89 0-7.79 0.01-11.7 0-1.16-0.01-2.33-0.01-3.53 0-1.06 0.01-2.11 0.01-3.2 0.01-0.93 0.01-1.85 0.01-2.8 0.57-5.01 4.03-4.44 8.25-4.46z" fill="#F8FAFA"/>
<path transform="translate(1441,89)" d="m0 0c1.9-0.36 1.9-0.36 4.25-0.34 0.89 0.01 1.78 0.01 2.7 0.01 0.98 0.01 1.97 0.03 2.98 0.05 1.54 0.01 1.54 0.01 3.12 0.02 3.42 0.02 6.84 0.07 10.3 0.12l7.11 0.06c4.97 0.05 9.94 0.11 14.9 0.17 6.38 0.08 12.8 0.15 19.2 0.2 4.89 0.04 9.78 0.1 14.7 0.15 2.35 0.03 4.7 0.05 7.06 0.07 3.28 0.03 6.57 0.08 9.85 0.12 1.48 0.01 1.48 0.01 2.98 0.02 0.89 0.02 1.78 0.04 2.7 0.05 0.78 0.01 1.55 0.02 2.35 0.03 1.9 0.27 1.9 0.27 3.9 2.27 0.78 5.95 0.96 12.1-2.55 17.2-2.53 3.06-5.2 5.97-7.89 8.88-2.84 3.18-5.45 6.49-8.06 9.87-3.92 5.06-8 9.88-12.3 14.6-3.41 3.79-6.61 7.76-9.81 11.7-1.58 1.94-3.16 3.87-4.74 5.81-1.18 1.45-2.36 2.9-3.55 4.35-0.57 0.69-1.13 1.39-1.72 2.11-0.8 0.98-0.8 0.98-1.62 1.98-0.47 0.59-0.95 1.17-1.44 1.78-1.17 1.49-2.23 3.06-3.28 4.63h-2c-0.27 0.8-0.54 1.61-0.81 2.44-0.39 0.84-0.79 1.69-1.19 2.56-0.99 0.33-1.98 0.66-3 1-0.71 1.31-1.37 2.65-2 4-1.04 1.3-2.13 2.57-3.25 3.81-2.32 2.59-4.62 5.19-6.88 7.83-0.54 0.63-1.07 1.26-1.63 1.91-0.41 0.48-0.82 0.96-1.24 1.45 0.67 0.01 1.33 0.02 2.02 0.03 7.04 0.11 14.1 0.23 21.1 0.34 2.62 0.05 5.23 0.09 7.85 0.13 16 0.25 32 0.65 48 1.5v19c-3.25 0.72-6.26 1.12-9.59 1.12h-2.7c-0.96 0-1.92 0-2.92-0.01h-3.1c-3.38 0-6.77 0-10.2-0.01-2.34 0-4.69-0.01-7.04-0.01-6.17 0-12.3-0.01-18.5-0.02-6.3-0.01-12.6-0.02-18.9-0.02-12.4-0.01-24.7-0.03-37.1-0.05l-1-3h-2c1.55-13.8 1.55-13.8 6-19 0.62-0.77 1.24-1.54 1.88-2.34 4.57-5.69 9.3-11.2 14-16.8 3.67-4.33 7.27-8.7 10.8-13.1 2.35-2.86 4.73-5.7 7.12-8.54 3.62-4.33 7.11-8.73 10.6-13.2 4.43-5.72 9.16-11 14.2-16.3 2.45-2.76 4.41-5.63 6.41-8.72 1.31-1.35 2.65-2.69 4-4 1.7-1.97 3.35-3.98 5-6-1.48 0.5-1.48 0.5-3 1-2-0.31-4-0.65-6-1-2.23-0.1-4.47-0.15-6.71-0.16-1.97-0.01-1.97-0.01-3.98-0.03-0.7 0-1.39-0.01-2.11-0.01-2.18-0.01-4.37-0.03-6.55-0.05-6.21-0.06-12.4-0.12-18.6-0.15-3.81-0.02-7.61-0.06-11.4-0.1-1.45-0.02-2.9-0.03-4.35-0.03-2.02 0-4.04-0.03-6.06-0.05-1.15-0.01-2.3-0.02-3.48-0.03-0.9-0.13-1.79-0.26-2.71-0.39-2.42-3.62-2.3-6.32-2.25-10.5-0.01-0.68-0.02-1.35-0.02-2.05 0.01-3.7 0.17-5.3 2.27-8.45z" fill="#F6F8F8"/>
<path transform="translate(284 89.7)" d="m0 0c0.88 0 1.75 0.01 2.65 0.01 0.88-0.02 1.75-0.03 2.65-0.05h2.54c0.77 0 1.53-0.01 2.32-0.01 2.7 0.49 3.42 1.19 5.06 3.37 0.36 2.72 0.36 2.72 0.34 6.03v3.77c-0.02 1.35-0.03 2.7-0.05 4.06-0.01 1.38-0.01 2.77-0.01 4.16-0.01 3.64-0.04 7.28-0.08 10.9-0.03 3.72-0.04 7.44-0.06 11.2-0.03 7.3-0.08 14.6-0.14 21.9 2.28 0.23 2.28 0.23 4.35-2.12 0.95-0.96 1.9-1.91 2.83-2.88 0.5-0.5 1-1 1.51-1.52 3.32-3.39 6.48-6.9 9.56-10.5 2.73-3.07 5.69-5.91 8.61-8.8 2.4-2.44 4.61-4.99 6.8-7.62 1.99-2.31 4.19-4.4 6.34-6.55 0.82-0.99 1.65-1.98 2.5-3 2.37-2.85 4.86-5.39 7.5-8l10-10c0.55-0.75 1.11-1.51 1.68-2.28 3.78-2.8 7.76-2.22 12.3-2.09h2.73c4.36 0.06 7.42 0.17 11.3 2.37-0.43 0.45-0.86 0.91-1.3 1.37-15.6 16.5-15.6 16.5-30.8 33.5-1.51 1.72-3.05 3.4-4.61 5.08-0.49 0.52-0.98 1.05-1.48 1.59-0.96 1.03-1.92 2.05-2.89 3.08-5.62 5.58-5.62 5.58-7.84 12.7 0.89 2.05 0.89 2.05 3.94 2.69 0.69 1.66 1.36 3.32 2 5 1.41 1.59 1.41 1.59 3 3 2.06 2.56 3.53 5.08 5 8l2 2c1.83 2.33 3.45 4.7 5.06 7.19 1.64 2.86 1.64 2.86 3.94 3.81 0.68 1.66 1.34 3.33 2 5l2 2c1.82 2.87 3.58 5.76 5.34 8.67 0.55 0.77 1.09 1.54 1.66 2.33h2c0.29 0.79 0.57 1.57 0.87 2.38 0.98 2.72 0.98 2.72 3.13 4.62 1 1.34 2 2.67 3 4 0.86 0.97 1.73 1.94 2.62 2.94 2.35 3.03 2.82 4.41 3.38 8.06-19.7 2.85-19.7 2.85-26.4-1.57-4.2-4.17-7.27-9.08-10.3-14.2-1.82-3.03-3.88-5.74-6.05-8.53-0.69-0.93-1.38-1.85-2.09-2.81-3.06-4.04-6.19-8.01-9.33-12-2.5-3.15-4.95-6.33-7.33-9.57-1.99-2.7-4.09-5.1-6.56-7.38-0.93 0.99-0.93 0.99-1.88 2-2.12 2-2.12 2-4.12 2-0.27 0.58-0.53 1.17-0.8 1.76-1.26 2.35-2.67 4.08-4.45 6.05-0.62 0.7-1.24 1.39-1.87 2.11-1.2 1.33-2.41 2.64-3.64 3.95-0.53 0.58-1.07 1.16-1.62 1.76-0.48 0.51-0.96 1.01-1.46 1.54-2.62 4.12-2.32 9.57-2.48 14.3-0.04 1.2-0.08 2.4-0.13 3.64-0.04 1.23-0.08 2.47-0.12 3.75-0.04 1.26-0.08 2.52-0.13 3.82l-0.3 9.3h-21c-1.19-3.55-1.18-6.79-1.21-10.5-0.01-0.76-0.02-1.53-0.03-2.31-0.03-2.55-0.06-5.1-0.08-7.64-0.02-1.81-0.04-3.61-0.06-5.41-0.05-3.81-0.09-7.63-0.13-11.4-0.04-4.75-0.1-9.5-0.15-14.2-0.14-11.2-0.24-22.4-0.32-33.6-0.02-2.94-0.05-5.87-0.07-8.81-0.04-4.83-0.07-9.66-0.09-14.5-0.01-1.82-0.02-3.64-0.04-5.46-0.02-2.51-0.03-5.02-0.03-7.52-0.01-0.75-0.02-1.49-0.03-2.26 0.01-7.35 2.45-7.59 9.02-7.65zm-7.78 36.3v7h1v-7h-1z" fill="#3E3E3E"/>
<path transform="translate(113 89.4)" d="m0 0c0.9-0.06 1.81-0.13 2.74-0.19 2.69-0.06 4.86 0 7.45 0.75 2.42 2.34 3.67 4.94 5 8 0.53 1.13 1.07 2.26 1.62 3.42 0.68 1.65 0.68 1.65 1.38 3.33 0.5 1.21 1 2.41 1.52 3.65 0.49 1.19 0.98 2.38 1.48 3.6 0.87 2.11 1.75 4.21 2.62 6.32 0.61 1.45 0.61 1.45 1.22 2.92 1.08 2.58 2.17 5.14 3.28 7.7 0.29 0.67 0.59 1.34 0.89 2.03 1 2.14 1 2.14 2.49 4.47 1.48 2.53 2.43 4.91 3.37 7.69 1.71 4.86 3.72 9.5 5.9 14.2 1.55 3.42 2.91 6.9 4.24 10.4 0.96 2.38 0.96 2.38 2.49 4.77 1.48 2.5 2.43 4.83 3.37 7.58 2.15 6.09 4.59 12 7.13 17.9 0.29 0.69 0.57 1.37 0.87 2.08 0.93 2.2 1.87 4.41 2.82 6.61 0.29 0.71 0.59 1.42 0.9 2.15 1.41 3.76 1.41 3.76 4.41 6.16v6h-21l-2-6h-2l-2.88-6.12c-0.53-1.14-1.06-2.28-1.61-3.45-1.37-3.11-2.47-6.2-3.51-9.43l-1-2 1-2c-22.4 0.33-44.9 0.66-68 1-3.63 8.58-7.26 17.2-11 26-2 2-2 2-4.16 2.23-0.87-0.01-1.74-0.02-2.63-0.03-0.94-0.01-1.88-0.02-2.85-0.02-0.99-0.02-1.97-0.04-2.99-0.05-0.99-0.01-1.98-0.02-3.01-0.03-2.45-0.02-4.91-0.06-7.36-0.1 0.55-4.19 1.51-7.57 3.33-11.4 0.46-0.99 0.93-1.99 1.41-3.02 0.5-1.04 1-2.08 1.51-3.16 3.47-7.41 6.76-14.8 9.58-22.4 1.62-4.16 3.53-8.17 5.44-12.2 2.14-4.5 4.18-9.03 6.16-13.6 0.59-1.34 1.17-2.67 1.75-4.01 0.29-0.68 0.59-1.35 0.89-2.05 4.42-10.1 8.93-20.2 13.6-30.2 1.21-2.64 2.36-5.29 3.5-7.95 1.61-3.79 3.24-7.56 4.89-11.3 0.35-0.82 0.7-1.64 1.06-2.48 0.35-0.78 0.69-1.56 1.04-2.36 0.46-1.05 0.46-1.05 0.92-2.13 2.32-4.2 8.53-3.09 12.7-3.22zm-0.81 25.6c-4.51 9.32-8.66 18.8-12.7 28.3-0.69 1.64-0.69 1.64-1.4 3.32-1.32 3.12-2.62 6.24-3.91 9.36-0.39 0.94-0.79 1.88-1.19 2.84-0.36 0.87-0.71 1.75-1.08 2.64-0.31 0.76-0.63 1.51-0.95 2.29-0.84 2.41-1.42 4.71-1.78 7.23 0.98 1.21 0.98 1.21 2.86 1.12h2.47 2.79c1.51-0.01 1.51-0.01 3.04-0.02h3.09c3.27-0.01 6.54-0.02 9.81-0.04 2.21 0 4.42 0 6.63-0.01 5.44-0.01 10.9-0.03 16.3-0.05-0.14-1.27-0.29-2.53-0.43-3.84-0.12-1.07-0.12-1.07-0.24-2.16-0.43-2.57-1.38-4.38-2.77-6.56-2.28-3.79-3.56-7.14-4.56-11.4h-2l-2-9h-2c-0.19-1.05-0.19-1.05-0.38-2.12-1.04-4.81-2.76-9.33-4.62-13.9-1.08-2.65-2.1-5.28-3-8h-2zm38 85 1 2z" fill="#3E3E3E"/>
<path transform="translate(819 88.9)" d="m0 0c1.2 0 1.2 0 2.42 0.01 0.83 0.01 1.65 0.02 2.5 0.03 0.84 0 1.68 0 2.55 0.01 2.07 0.01 4.13 0.03 6.2 0.05 2.92 6.28 5.42 12.6 7.81 19.2 1.15 3.14 2.35 6.21 3.69 9.28 2.05 4.87 3.63 9.86 5.25 14.9 2.02 6.17 4.48 12 7.19 17.9 2.3 5.15 4.17 10.4 6.06 15.8 0.99 2.67 2 5.33 3 8 2.86 7.59 2.86 7.59 4 11l2 2c0.72 1.98 1.39 3.98 2 6h2c0.38-1.02 0.75-2.03 1.14-3.08 0.51-1.39 1.03-2.78 1.55-4.17 0.27-0.73 0.54-1.46 0.82-2.21 1.64-4.37 3.38-8.69 5.24-13 1.77-4.15 2.99-8.07 3.7-12.5 0.72-2.67 2.12-4.67 3.55-7.03 4.04-9.1 7.28-18.5 10.5-27.9 2.43-7.02 5.09-13.9 8.03-20.7 1.09-2.55 2.03-5.07 2.94-7.68 1.5-3.69 1.5-3.69 4.5-5.69 2.86-0.2 5.59-0.28 8.44-0.25 0.76-0.01 1.53-0.02 2.31-0.03 1.11 0.01 1.11 0.01 2.25 0.01 0.67 0 1.34 0.01 2.03 0.01 2.32 0.3 3.95 1.12 5.97 2.26-2.11 6.51-4.43 12.9-6.87 19.3-0.33 0.86-0.66 1.72-0.99 2.61-2.58 6.75-5.34 13.4-8.14 20.1-6.14 14.7-12.2 29.4-18 44.3-2.43 6.28-4.99 12.5-7.69 18.6-1.34 3.09-2.62 6.2-3.89 9.32-5.89 14.2-5.89 14.2-8.44 16.8-3.26 0.3-6.54 0.28-9.81 0.31-0.92 0.03-1.83 0.06-2.78 0.09-6.74 0.06-6.74 0.06-10-2.23-1.37-2.17-1.37-2.17-1.37-5.17-0.99-0.33-1.98-0.66-3-1-0.84-1.82-0.84-1.82-1.5-4.13-0.88-2.9-1.8-5.57-3-8.37-1.15-2.68-2.07-5.23-2.94-8-0.96-2.99-2.06-5.56-3.68-8.25-1.76-3.05-2.22-4.89-2.88-8.25-0.62-1.31-1.27-2.6-1.94-3.88-1.89-3.62-2.93-7.19-4.06-11.1-0.97-2.04-2.01-4.02-3.06-6.02-0.94-1.98-0.94-1.98-2-5.73-0.72-3.2-0.72-3.2-2.44-5.25-1.65-2.2-2.22-4.22-2.9-6.86-1.44-5.13-3.21-10.4-5.6-15.1l1-2h-2c-1.34-3-2.67-6-4-9-0.37-0.83-0.74-1.65-1.12-2.5-1.11-3.15-1.71-6.33-2.32-9.61-0.18-0.63-0.37-1.25-0.56-1.89l-2-1c-1.26-4.48-1.26-4.48 0-7 2.8-0.97 5.39-1.12 8.33-1.1zm10.7 52.1 1 2zm28 69 1 2z" fill="#FBFDFD"/>
<path transform="translate(1041 89.9)" d="m0 0c0.84 0 1.69 0 2.56 0.01 1.32-0.01 1.32-0.01 2.68-0.01h8.82 6.1c4.27-0 8.54 0 12.8 0.01 5.48 0 11 0 16.4-0.01h12.6 6.07c2.82-0 5.65 0 8.47 0.01 0.84-0.01 1.68-0.01 2.55-0.01 5.78 0.02 5.78 0.02 8.01 1.14l-1 3v-2c-11.7 0.1-23.4 0.22-35.2 0.33-5.44 0.06-10.9 0.11-16.3 0.16-5.25 0.05-10.5 0.1-15.7 0.16-2 0.02-4.01 0.04-6.01 0.05-2.8 0.03-5.6 0.06-8.4 0.09-0.84 0.01-1.68 0.01-2.54 0.02-3.72-0.31-3.72-0.31-6.84 1.19-0.16 2.21-0.25 4.43-0.31 6.66-0.02 0.66-0.05 1.32-0.07 2.01l-0.18 6.39c-0.04 1.44-0.09 2.88-0.13 4.32-0.11 3.54-0.21 7.08-0.31 10.6h-1c-0.02-4.69-0.04-9.37-0.05-14-0.01-1.59-0.01-3.19-0.02-4.78-0.01-2.29-0.02-4.57-0.02-6.86-0.01-0.71-0.02-1.43-0.02-2.17 0-1.72 0.05-3.43 0.11-5.14 1.84-1.84 4.43-1.13 6.88-1.14z" fill="#FAFCFD"/>
<path transform="translate(1057,144)" d="m0 0c21.4 0.33 42.9 0.66 65 1l-1 3c-5.25 0.02-10.5 0.04-15.8 0.05-1.79 0.01-3.58 0.02-5.37 0.03-2.56 0.01-5.12 0.01-7.69 0.02-1.2 0.01-1.2 0.01-2.44 0.01-1.91 0-3.83-0.05-5.75-0.11l-1-1c-2.51-0.05-4.99-0.04-7.5 0-5.91 0.05-11.7 0.03-17.5-1l-1-2z" fill="#7E7F7F"/>
<path transform="translate(1475 202)" d="m0 0c1.51 0 3.03 0.01 4.54 0.03 0.79 0 1.59 0.01 2.41 0.01 2.55 0.01 5.1 0.04 7.64 0.06 1.73 0.01 3.45 0.02 5.18 0.03 4.23 0.02 8.47 0.06 12.7 0.1v2c-4.45 0.17-8.9 0.33-13.3 0.48-1.52 0.05-3.03 0.11-4.54 0.17-2.18 0.08-4.36 0.15-6.54 0.23-1.96 0.07-1.96 0.07-3.96 0.14-3.34-0.02-6.35-0.37-9.62-1.02 2-2 2-2 5.53-2.23z" fill="#FAFCFD"/>
<path transform="translate(1033,184)" d="m0 0h3v28c-3.14-4.18-3.37-4.78-3.29-9.64 0.01-1.07 0.02-2.14 0.03-3.24 0.02-1.11 0.05-2.23 0.07-3.37 0.02-1.13 0.03-2.25 0.04-3.41 0.04-2.78 0.09-5.56 0.15-8.34z" fill="#F9FCFD"/>
<path transform="translate(1533,202)" d="m0 0h16l1 2c-1.81 1.56-1.81 1.56-4 3-0.99-0.33-1.98-0.66-3-1-1.89-0.22-3.79-0.41-5.69-0.56-0.99-0.09-1.99-0.17-3.01-0.26-1.14-0.09-1.14-0.09-2.3-0.18l1-3z" fill="#A8AAAA"/>
<path transform="translate(1034,128)" d="m0 0c2.53 3.79 2.22 6.81 2.12 11.2 0 0.75-0.01 1.5-0.02 2.27-0.03 1.85-0.06 3.69-0.1 5.54-2.07-2.07-2.93-3.04-3.13-5.95 0.01-4.46 0.23-8.66 1.13-13z" fill="#F9FCFD"/>
<path transform="translate(1441,91)" d="m0 0c1.55 3.1 0.83 6.26 0.56 9.62-0.05 0.71-0.1 1.42-0.16 2.15-0.13 1.74-0.26 3.49-0.4 5.23l-2-1v-15l2-1z" fill="#FAFCFD"/>
</svg>
